<svg xmlns="http://www.w3.org/2000/svg" width="1120" height="700" viewBox="0 0 1120 700">
<rect width="1120" height="700" fill="#f7f8f3"/>
<rect x="42" y="36" width="1036" height="628" rx="18" fill="#ffffff" stroke="#d6d9cf"/>
<text x="72" y="88" font-size="30" fill="#102027">最小语义 SLAM Demo 运行结果</text>
<text x="72" y="124" font-size="18" fill="#50606a">ObjectObservation -> Cross-session Cluster -> Stable MapObject / Rejection</text>
<rect x="72" y="160" width="220" height="118" rx="14" fill="#e8f1ff" stroke="#8ab4f8"/>
<rect x="326" y="160" width="220" height="118" rx="14" fill="#f0f7e8" stroke="#9cc878"/>
<rect x="580" y="160" width="220" height="118" rx="14" fill="#e9f8f5" stroke="#63b6aa"/>
<rect x="834" y="160" width="190" height="118" rx="14" fill="#fff0eb" stroke="#ee9b7a"/>
<text x="158" y="214" font-size="38" fill="#174ea6">11</text>
<text x="160" y="248" font-size="20" fill="#174ea6">观测</text>
<text x="417" y="214" font-size="38" fill="#4e7d20">4</text>
<text x="400" y="248" font-size="20" fill="#4e7d20">对象簇</text>
<text x="672" y="214" font-size="38" fill="#00796b">2</text>
<text x="632" y="248" font-size="20" fill="#00796b">保留稳定对象</text>
<text x="922" y="214" font-size="38" fill="#c2410c">2</text>
<text x="884" y="248" font-size="20" fill="#c2410c">拒绝对象簇</text>
<path d="M294 219 L324 219" stroke="#73808a" stroke-width="3" marker-end="url(#arrow)"/>
<path d="M548 219 L578 219" stroke="#73808a" stroke-width="3" marker-end="url(#arrow)"/>
<path d="M802 219 L832 219" stroke="#73808a" stroke-width="3" marker-end="url(#arrow)"/>
<defs><marker id="arrow" markerWidth="10" markerHeight="10" refX="8" refY="3" orient="auto"><path d="M0,0 L0,6 L9,3 z" fill="#73808a"/></marker></defs>
<text x="88" y="332" font-size="24" fill="#0f766e">保留的稳定地图对象</text>
<circle cx="98" cy="365" r="6" fill="#0f766e"/>
<text x="116" y="370" font-size="18" fill="#172026">map_001_safety_barrier: safety barrier  sessions=3  support=3</text>
<circle cx="98" cy="399" r="6" fill="#0f766e"/>
<text x="116" y="404" font-size="18" fill="#172026">map_002_warehouse_rack: warehouse rack  sessions=3  support=3</text>
<text x="88" y="462" font-size="24" fill="#b45309">拒绝的动态/瞬时证据</text>
<circle cx="98" cy="495" r="6" fill="#b45309"/>
<text x="116" y="500" font-size="18" fill="#172026">forklift_c: forklift  reasons=dynamic_or_transient_contamination</text>
<circle cx="98" cy="529" r="6" fill="#b45309"/>
<text x="116" y="534" font-size="18" fill="#172026">pallet_d: pallet stack  reasons=low_session_support,low_observation_support,dynamic_or_transient_contamination</text>
<text x="72" y="618" font-size="19" fill="#38444d">结论：稳定基础设施进入地图；forklift-like 和单会话瞬时对象被挡在持久地图外。</text>
<text x="72" y="646" font-size="16" fill="#66727c">运行命令：python tools/run_minimal_demo.py  或  make demo</text>
</svg>
